<svg width="68" height="62" viewBox="0 0 68 62" fill="none" xmlns="http://www.w3.org/2000/svg">
<g clip-path="url(#clip0_7921_155)">
<path d="M32.3071 48.1226C32.3071 52.6733 29.6663 58.1906 19.1031 58.1906C17.29 58.1906 11.4566 58.1906 10.5107 58.1906C11.3384 56.1367 20.1279 35.7592 20.1279 35.7592C27.4591 39.4239 32.3466 41.6389 32.3071 48.1226ZM64.7062 58.2308C60.0553 57.1032 58.1633 50.5792 57.0203 47.9213C56.1138 45.8271 36.8793 0.360352 36.8793 0.360352H29.4693C28.1686 0.360352 25.2124 0.440895 23.1629 0.803341C13.1909 2.2934 5.74146 8.57579 5.74146 19.0464C5.8597 24.6845 8.18518 29.6782 16.3441 33.8262L11.1019 45.6258C10.3136 47.3977 8.34284 51.8276 7.23922 53.962C5.11082 58.0698 3.4948 58.1906 0.144531 58.1906V61.6137C3.57363 61.5734 18.7484 61.6137 18.7484 61.6137C21.5469 61.6137 25.7643 61.2512 28.4445 60.5263C36.1304 58.3919 40.6237 53.0761 40.6237 46.1493C40.6237 36.8868 34.3961 32.5777 26.0007 28.3089C24.4636 27.4632 23.8723 27.1411 23.8723 27.1411L27.5379 18.5632L25.4095 13.2876L20.1673 25.2483C20.1673 25.2483 13.1121 23.4361 13.1121 14.9387C13.1121 7.08573 20.8768 4.18617 27.4985 4.18617C28.9569 4.18617 28.3262 4.18617 29.5875 4.18617C29.8634 4.79024 53.1971 61.6539 53.1971 61.6539C53.5124 61.6539 66.204 61.6539 66.7558 61.6539L66.7164 58.2711C65.1398 58.2711 65.4157 58.2308 64.7062 58.2308Z" fill="#bdcdd7"/>
<path d="M60.9224 31.3695L58.8334 26.1342L56.5473 31.5709H61.0012L60.9224 31.3695ZM60.0947 24.322L64.4303 35.4773C64.6668 36.0813 65.2186 37.813 66.8346 37.6922V38.3768C65.8887 38.3768 64.9427 38.3768 63.9968 38.3366C63.0508 38.3768 62.1048 38.3768 61.1589 38.3768V37.6519C61.1589 37.6519 62.972 37.6922 62.972 36.8465C62.972 36.4438 62.7749 36.0813 62.6566 35.7189L61.3165 32.3361H56.3503L55.0496 35.8397C54.9707 36.1216 54.8525 36.4841 54.8525 36.7257C54.8525 37.6519 55.8773 37.6117 56.5867 37.6117V38.3366C55.759 38.3366 54.9707 38.3366 54.143 38.2963C53.3547 38.3366 52.527 38.3366 51.6993 38.3366V37.6117C52.4088 37.5311 52.7635 37.6117 53.2759 37.0076C53.5518 36.6854 54.1036 35.2759 54.3007 34.8732L58.7546 24.2414L60.0947 24.322ZM44.2105 31.3293H45.5111C48.1125 31.3293 49.8862 31.2085 49.8862 28.1478C49.8862 25.208 48.8614 24.9663 46.5359 24.9663H44.2499L44.2105 31.3293ZM44.2105 36.2424C44.2105 37.3298 44.171 37.6117 46.1812 37.6117V38.2963C45.1958 38.256 44.2499 38.256 43.2645 38.256C42.2791 38.256 41.2937 38.256 40.3478 38.2963V37.6117C42.358 37.6117 42.3185 37.3298 42.3185 36.2424V26.2953C42.3185 25.208 42.358 24.9261 40.3478 24.9261V24.2414C41.3332 24.2414 42.2791 24.2414 43.2645 24.2817C44.6834 24.2414 46.1024 24.2414 47.5607 24.2414C50.2015 24.1609 51.6599 24.9663 51.6599 27.7854C51.6599 31.6112 49.4526 32.0542 46.1024 32.0542H44.2105V36.2424ZM36.1304 33.9067V37.4908C35.1844 37.9741 31.5188 38.2963 30.6123 38.2963C25.5672 38.2963 23.9118 35.6786 23.9118 30.9668C23.9118 26.0939 26.0402 23.7582 31.0459 23.7582C32.9378 23.7582 34.2779 24.0401 36.091 24.5636V27.8256H34.9874L34.9085 27.2215C34.6326 24.9663 33.6078 24.4831 31.0064 24.4831C27.1832 24.4831 26.0402 27.2215 26.0402 30.6044C26.0402 34.3094 26.7102 37.4506 31.1247 37.4506C34.3173 37.4506 34.6326 36.7257 34.9085 33.8664L36.1304 33.9067ZM16.2652 26.2953C16.2652 24.9663 15.8711 24.9261 14.2551 24.9261V24.2414C15.2405 24.2414 16.1864 24.2414 17.1718 24.2817C18.1572 24.2414 19.1031 24.2414 20.0885 24.2414V24.9261C18.5513 24.9261 18.1178 24.9663 18.1178 26.3356V36.2827C18.1178 37.6117 18.5119 37.6519 20.0885 37.6519V38.3366C19.1031 38.2963 18.1572 38.2963 17.1718 38.2963C16.1864 38.2963 15.2405 38.2963 14.2551 38.3366V37.6519C15.8711 37.6519 16.2652 37.6117 16.2652 36.2827V26.2953ZM6.56917 30.2017C8.53992 30.8863 10.2742 31.7723 10.2742 34.1483C10.2742 37.4506 7.47571 38.3366 4.59842 38.3366C3.10065 38.3366 1.56347 38.0949 0.144531 37.4506V33.7858H1.52405C1.72113 35.7592 1.20873 37.6519 4.87433 37.6519C6.68741 37.6519 8.42167 36.8465 8.42167 34.7926C8.42167 32.5374 6.17502 32.0139 4.40135 31.4098C2.47001 30.7252 0.735756 30.0406 0.735756 27.6645C0.735756 24.9663 2.98241 23.7985 5.46555 23.7985C6.88449 23.7985 8.2246 23.9998 9.72237 24.5636V27.9062H8.57933C8.38226 26.3356 8.73699 24.5636 5.54438 24.5636C3.88895 24.5636 2.54884 25.2885 2.54884 27.0605C2.54884 28.2686 3.14007 28.913 4.24369 29.3962L6.56917 30.2017Z" fill="#002159"/>
</g>
<defs>
<clipPath id="clip0_7921_155">
<rect width="66.7119" height="60.9449" fill="white" transform="translate(0.300781 0.519653)"/>
</clipPath>
</defs>
</svg>
